<svg xml:space="preserve" viewBox="458.784 460.944 164.16 166.32" version="1.1"
	xmlns:xlink="http://www.w3.org/1999/xlink" xmlns="http://www.w3.org/2000/svg"
	style="max-height: 500px" width="164.16" height="166.32">
<desc>Created with Fabric.js 5.2.4</desc>
<defs>
</defs>
<rect fill="transparent" height="100%" width="100%" y="0" x="0"/>
<g id="a4df0420-fb8c-4225-ad17-2e60f03276af" transform="matrix(1 0 0 1 540 540)">
<rect height="1080" width="1080" ry="0" rx="0" y="-540" x="-540" style="stroke: none; stroke-width: 10; stroke-dasharray: none; stroke-linecap: butt; stroke-dashoffset: 0; stroke-linejoin: miter; stroke-miterlimit: 4; fill: rgb(255,255,255); fill-rule: nonzero; opacity: 1; visibility: hidden;"/>
</g>
<g id="b0b358b1-895c-42bf-b208-f239c23d0587" transform="matrix(1 0 0 1 540 540)">
</g>
<g id="9b823af0-e4bd-4098-a700-e274deb3514e" transform="matrix(1 0 0 1 540 540)">
<path stroke-linecap="round" d="M 202.82861 197.17188 C 204.39053754669146 198.73407816621886 204.3903181662189 201.26668245330853 202.82812 202.82860999999997 C 201.26592183378114 204.39053754669143 198.73331754669147 204.39031816621886 197.17139 202.82811999999998 L 128 133.65723 L 58.82861 202.82812 C 57.26668245330853 204.3903181662189 54.73407816621888 204.3905375466915 53.17188 202.82861000000003 C 51.60968183378112 201.26668245330856 51.60946245330853 198.7340781662189 53.171389999999995 197.17188000000002 L 122.343 128 L 53.17139 58.82812 C 51.60946245330854 57.26592183378112 51.609681833781124 54.73331754669146 53.17188 53.17139 C 54.734078166218886 51.60946245330854 57.26668245330854 51.609681833781124 58.828610000000005 53.17188 L 128 122.34277 L 197.17139 53.17188 C 198.73331754669147 51.609681833781124 201.2659218337811 51.60946245330854 202.82811999999998 53.17139 C 204.3903181662189 54.73331754669146 204.39053754669146 57.265921833781114 202.82861 58.82812 L 133.657 128 Z" transform="translate(-128, -128)" style="stroke: rgb(255,255,255); stroke-width: 10; stroke-dasharray: none; stroke-linecap: butt; stroke-dashoffset: 0; stroke-linejoin: miter; stroke-miterlimit: 4; fill: rgb(255,255,255); fill-rule: nonzero; opacity: 1;"/>
</g>
</svg>